<svg id="visual" viewBox="0 0 900 600" width="900" height="600" xmlns="http://www.w3.org/2000/svg" xmlns:xlink="http://www.w3.org/1999/xlink" version="1.1"><rect x="0" y="0" width="900" height="600" fill="#005af9"></rect><path d="M0 467L25 460C50 453 100 439 150 450.2C200 461.3 250 497.7 300 508.8C350 520 400 506 450 496.8C500 487.7 550 483.3 600 489.3C650 495.3 700 511.7 750 504.2C800 496.7 850 465.3 875 449.7L900 434L900 601L875 601C850 601 800 601 750 601C700 601 650 601 600 601C550 601 500 601 450 601C400 601 350 601 300 601C250 601 200 601 150 601C100 601 50 601 25 601L0 601Z" fill="#ffffff" stroke-linecap="round" stroke-linejoin="miter"></path></svg>